<svg id="Vrstva_1" xmlns="http://www.w3.org/2000/svg" viewBox="0 0 781 781"><defs><style>.cls-1,.cls-2{fill:#fff27e;}.cls-1,.cls-2,.cls-3{stroke:#fff27e;stroke-miterlimit:10;}.cls-2{stroke-width:36.43px;}.cls-3{fill:none;stroke-width:36px;}</style></defs><path class="cls-1" d="M408.77,768.44a153.16,153.16,0,0,1-152-135.85,15.77,15.77,0,0,1,15.72-17.47H286a6.36,6.36,0,0,1,6.37,6C295.46,682.8,346.49,732,408.77,732c64.28,0,116.58-52.44,116.58-116.89,0-1.58,0-3.17-.09-4.74a6.35,6.35,0,0,1,5.75-6.6l23.68-2.18a6.34,6.34,0,0,1,6.91,6c.12,2.5.19,5,.19,7.54a153.18,153.18,0,0,1-153,153.32Z" transform="translate(-125 -109)"></path><path class="cls-1" d="M606.55,631.51H256.83v-7.73a28.7,28.7,0,0,1,28.7-28.7h321a13.22,13.22,0,0,1,13.22,13.22v10A13.21,13.21,0,0,1,606.55,631.51Z" transform="translate(-125 -109)"></path><path class="cls-1" d="M569.68,392.88H533.25a153.16,153.16,0,0,1,153-153.32c4.54,0,9.08.2,13.59.6A14.69,14.69,0,0,1,713,257.64l-1.37,7a14.72,14.72,0,0,1-15.69,11.78q-4.8-.39-9.63-.39C622,276,569.68,328.43,569.68,392.88Z" transform="translate(-125 -109)"></path><line class="cls-2" x1="418.61" y1="497.93" x2="426.46" y2="280.84"></line><circle class="cls-3" cx="390.5" cy="390.5" r="372.5"></circle></svg>