<svg id="Capa_1" enable-background="new 0 0 512 512" height="512" viewBox="0 0 512 512" width="512" xmlns="http://www.w3.org/2000/svg"><g><path d="m456.969 407.139c27.744-39.712 44.031-88.02 44.031-140.139 0-135.31-109.69-245-245-245s-245 109.69-245 245c0 52.119 16.287 100.427 44.031 140.139z" fill="#ffdd40"/><circle cx="256" cy="222" fill="#ffc839" r="180"/><path d="m375.484 209.235c.035-1.626.058-3.256.058-4.894 0-89.805-53.521-162.606-119.543-162.606s-119.543 72.801-119.543 162.606c0 73.893-.358 127.744-30.028 162.606h299.083c-29.011-34.085-29.998-86.336-30.027-157.712z" fill="#1e2f59"/><path d="m256 0c-86.745 0-121.91 82.915-95.902 149.553h191.804c26.008-66.638-9.157-149.553-95.902-149.553z" fill="#3c5082"/><path d="m355.298 139.59c-.034-.551-8.096-65.778-64.51-75.942-57.608-10.379-106.569-42.787-73.561-57.274-57.924 20.634-78.832 87.568-57.128 143.179h191.804c1.281-3.285 2.409-6.61 3.395-9.963z" fill="#2d3c6b"/><path d="m337.339 47.697c11.651-20.18 30.65-33.468 51.665-38.445 2.533-.6 5.129.891 5.876 3.384 2.614 8.725 3.768 17.878 3.356 27.06-.138 3.07-2.224 5.709-5.192 6.504-3.736 1.001-5.953 4.841-4.952 8.578l2.935 10.954c.435 1.625.26 3.345-.458 4.866-.957 2.03-2.005 4.036-3.147 6.014-11.65 20.178-30.647 33.466-51.661 38.444-2.538.601-5.135-.898-5.884-3.397-6.197-20.687-4.189-43.783 7.462-63.962z" fill="#f1e0c7"/><path d="m337.338 47.697c-11.65 20.178-13.659 43.274-7.463 63.962.749 2.499 3.345 3.998 5.884 3.397 11.04-2.615 21.509-7.545 30.662-14.541 11.817-35.275 2.942-64.132-4.296-79.453-9.869 6.678-18.427 15.621-24.787 26.635z" fill="#e8d0b1"/><path d="m304.32 53.386-3.481-3.481c-2.5-2.5-3.495-6.136-2.622-9.563 3.861-15.159 11.98-28.616 23.013-39.02 1.923-1.813 4.935-1.737 6.856.079 15.667 14.814 25.445 35.792 25.445 59.056s-9.778 44.241-25.445 59.056c-1.921 1.816-4.932 1.893-6.856.079-11.033-10.404-19.152-23.861-23.013-39.02-.873-3.426.122-7.063 2.622-9.563l3.481-3.481c3.905-3.905 3.905-10.237 0-14.142z" fill="#ff4155"/><path d="m310.56 13.627c-5.628 7.968-9.867 16.988-12.344 26.715-.873 3.427.122 7.063 2.623 9.563l3.481 3.481c3.905 3.905 3.905 10.237 0 14.142l-3.481 3.481c-2.5 2.5-3.495 6.136-2.623 9.563 3.861 15.159 11.98 28.616 23.013 39.02 1.923 1.813 4.935 1.737 6.856-.08 8.425-7.967 15.144-17.718 19.558-28.647-45.036-23.99-37.166-76.691-37.083-77.238z" fill="#e80054"/><path d="m325.718 126.773c-2.762 0-5-2.239-5-5v-81.752c0-2.761 2.238-5 5-5s5 2.239 5 5v81.752c0 2.762-2.239 5-5 5z" fill="#cc0053"/><path d="m456.908 407.139c-9.221-25.363-19.04-47.328-27.391-54.702-3.321-2.932-8.202-5.785-14.123-8.524l-.001.003h-318.853c-5.919 2.738-10.798 5.589-14.118 8.521-8.351 7.373-18.17 29.339-27.391 54.702 44.284 63.388 117.778 104.861 200.969 104.861 83.166 0 156.64-41.447 200.929-104.803-.007-.019-.014-.038-.021-.058z" fill="#a05838"/><path d="m96.54 343.917c-5.919 2.738-10.798 5.589-14.118 8.521-8.351 7.373-18.17 29.339-27.391 54.702 44.284 63.387 117.778 104.86 200.969 104.86 53.07 0 102.192-16.88 142.304-45.558l.001-.001c.004-.003.008-.006.012-.008-81.479 5.678-131.766-35.581-159.873-77.237-9.325-13.82-10.789-30.647-5.479-45.279z" fill="#7f3822"/><path d="m386.978 333.551h-262.011c-10.572 3.19-20.448 6.674-28.427 10.365l1.784 3.442c1.887 3.64 47.47 89.144 157.645 89.144 110.176 0 155.759-85.504 157.67-89.191l1.754-3.398c-7.976-3.69-17.848-7.173-28.415-10.362z" fill="#e8d0b1"/><path d="m303.602 314.668v-.01c-.313-.053-.493-.082-.493-.082v-120.826h-94.279v120.835c-1.724.286-46.978 7.836-83.871 18.968s37.81 72.949 131.01 72.949 131.01-72.949 131.01-72.949l.001-.002c-35.237-10.631-78.104-17.995-83.378-18.883z" fill="#ce846a"/><path d="m197.124 316.667c-15.451 2.872-43.575 8.527-68.665 15.848l-.062.018c-1.153.337-2.299.677-3.438 1.02 0 0 36.599 70.61 126.54 72.891-4.797-5.658-9.141-11.449-13.054-17.249-15.318-22.702-9.462-53.536 12.867-69.394 36.788-26.127 51.798-58.057 51.798-58.057v-67.994h-94.28v120.835c-4.653.793-9.279 1.619-11.706 2.082z" fill="#c3785c"/><path d="m256 340.17c-22.549 0-41.939-7.642-56.075-22.1-1.931-1.975-1.895-5.14.08-7.071 1.974-1.93 5.14-1.895 7.07.08 12.211 12.489 29.129 19.091 48.925 19.091s36.714-6.602 48.925-19.091c1.932-1.975 5.097-2.01 7.07-.08 1.975 1.931 2.011 5.096.08 7.071-14.136 14.458-33.526 22.1-56.075 22.1z" fill="#a05838"/><path d="m91.07 426.843v21.327c7.157 6.519 14.704 12.617 22.599 18.262l-12.035-41.103c-1.75-5.98-10.564-4.716-10.564 1.514z" fill="#6b2c1b"/><path d="m420.93 426.843v21.327c-7.157 6.519-14.704 12.617-22.599 18.262l12.035-41.103c1.75-5.98 10.564-4.716 10.564 1.514z" fill="#7f3822"/><path d="m170.466 121.774c-1.347 7.954-2.063 16.302-2.063 24.981 0 64.505 39.219 140.155 87.597 140.155s87.597-75.651 87.597-140.155c0-8.679-.716-17.027-2.063-24.981z" fill="#dd9883"/><path d="m208.403 146.754c0-8.678.711-17.028 2.058-24.981h-39.995c-1.347 7.954-2.063 16.302-2.063 24.981 0 64.505 39.219 140.155 87.597 140.155 6.881 0 13.576-1.535 20-4.346-38.741-16.952-67.597-80.479-67.597-135.809z" fill="#ce846a"/><path d="m198.473 121.774h-50.21c0 24.189-2.056 78.231 25.105 108.801 27.16-30.571 25.105-84.612 25.105-108.801z" fill="#3c5082"/><path d="m173.368 230.574c-22.021 18.248-22.263 49.378-22.159 66.483.014 2.302 1.883 4.156 4.185 4.156h18.52c1.893 0 3.55-1.27 4.041-3.098l.234-.87c1.173-4.363 7.471-4.028 8.175.435.321 2.034 2.074 3.533 4.134 3.533h.846c2.302 0 4.171-1.854 4.185-4.156.102-17.104-.14-48.234-22.161-66.483z" fill="#3c5082"/><path d="m180.868 245.574h-15c-4.142 0-7.5-3.358-7.5-7.5 0-4.142 3.358-7.5 7.5-7.5h15c4.142 0 7.5 3.358 7.5 7.5 0 4.143-3.358 7.5-7.5 7.5z" fill="#ff4155"/><path d="m180.868 230.574h-15c-4.142 0-7.5-3.358-7.5-7.5 0-4.142 3.358-7.5 7.5-7.5h15c4.142 0 7.5 3.358 7.5 7.5 0 4.143-3.358 7.5-7.5 7.5z" fill="#ffc839"/><path d="m313.527 121.774h50.21c0 24.189 2.056 78.231-25.105 108.801-27.16-30.571-25.105-84.612-25.105-108.801z" fill="#3c5082"/><path d="m338.632 230.574c22.021 18.248 22.263 49.378 22.159 66.483-.014 2.302-1.883 4.156-4.185 4.156h-18.52c-1.893 0-3.55-1.27-4.041-3.098l-.234-.87c-1.173-4.363-7.471-4.028-8.175.435-.321 2.034-2.074 3.533-4.134 3.533h-.846c-2.302 0-4.171-1.854-4.185-4.156-.102-17.104.14-48.234 22.161-66.483z" fill="#3c5082"/><path d="m331.132 245.574h15c4.142 0 7.5-3.358 7.5-7.5 0-4.142-3.358-7.5-7.5-7.5h-15c-4.142 0-7.5 3.358-7.5 7.5 0 4.143 3.358 7.5 7.5 7.5z" fill="#ff4155"/><path d="m331.132 230.574h15c4.142 0 7.5-3.358 7.5-7.5 0-4.142-3.358-7.5-7.5-7.5h-15c-4.142 0-7.5 3.358-7.5 7.5 0 4.143 3.358 7.5 7.5 7.5z" fill="#ffc839"/><path d="m366 141.774c1.505 0 2.839-.679 3.756-1.731l-3.75-19.134-23.75-19.134-23.751 19.134-4.995 20.866z" fill="#ffc839"/><path d="m313.509 141.774-4.997-20.866-23.752-19.134-24.375 20-4.375 20z" fill="#ff4155"/><path d="m256.01 141.774-4.376-20-24.375-20-24.376 20-4.375 20z" fill="#f9efdc"/><path d="m146 141.774h52.508l-4.377-20-24.377-20-24.377 20-3.133 18.269c.917 1.052 2.251 1.731 3.756 1.731z" fill="#ffc839"/><path d="m342.255 101.774h-57.495l28.749 40z" fill="#f9efdc"/><path d="m371 136.774v-30c0-2.761-2.239-5-5-5h-23.745l27.501 38.269c.765-.879 1.244-2.013 1.244-3.269z" fill="#ff4155"/><path d="m284.76 101.774h-57.501l28.751 40z" fill="#ffc839"/><path d="m146 101.774c-2.761 0-5 2.239-5 5v30c0 1.256.479 2.391 1.244 3.269l27.51-38.269z" fill="#f9efdc"/><path d="m227.259 101.774h-57.505l28.754 40z" fill="#ff4155"/></g></svg>